<?xml version="1.0" standalone="no"?><!DOCTYPE svg PUBLIC "-//W3C//DTD SVG 1.1//EN" "http://www.w3.org/Graphics/SVG/1.1/DTD/svg11.dtd"><svg class="icon" width="64px" height="64.00px" viewBox="0 0 1024 1024" version="1.1" xmlns="http://www.w3.org/2000/svg"><path d="M806.4 170.666667H217.6a4.266667 4.266667 0 0 0-4.266667 4.266666v79.189334c0 1.194667 0.512 2.346667 1.365334 3.157333l289.536 264.533333a4.266667 4.266667 0 0 1-0.170667 6.442667l-289.194667 238.08a4.266667 4.266667 0 0 0-1.536 3.285333V849.066667a4.266667 4.266667 0 0 0 4.266667 4.266666h588.8a4.266667 4.266667 0 0 0 4.266667-4.266666v-76.8a4.266667 4.266667 0 0 0-4.266667-4.266667H353.024a4.266667 4.266667 0 0 1-2.730667-7.509333l277.248-233.813334-1.066666-1.066666 1.066666-1.066667-278.314666-261.12A4.266667 4.266667 0 0 1 352.128 256H806.4a4.266667 4.266667 0 0 0 4.266667-4.266667V174.933333a4.266667 4.266667 0 0 0-4.266667-4.266666z" /></svg>